<svg xmlns="http://www.w3.org/2000/svg" width="256" height="256" viewBox="0 0 100 100"><rect width="100" height="100" rx="20" fill="#228be6"></rect><path fill="#fff" d="M20.68 61.66L9.97 50.57L9.97 62.70Q9.72 62.79 9.30 62.89Q8.88 63.00 8.38 63.00L8.38 63.00Q6.53 63.00 6.53 61.45L6.53 61.45L6.53 37.30Q6.74 37.21 7.18 37.11Q7.62 37.00 8.13 37.00L8.13 37.00Q9.97 37.00 9.97 38.55L9.97 38.55L9.97 49.01L21.52 37.04Q22.62 37.08 23.16 37.59Q23.71 38.09 23.71 38.77L23.71 38.77Q23.71 39.31 23.41 39.77Q23.12 40.23 22.57 40.78L22.57 40.78L13.50 49.69Q17.32 53.42 20.12 56.34Q22.91 59.26 24.93 61.07L24.93 61.07Q24.84 61.99 24.36 62.52Q23.88 63.04 23.12 63.04L23.12 63.04Q22.41 63.04 21.84 62.64Q21.27 62.24 20.68 61.66L20.68 61.66ZM46.18 40.11L39.25 40.11L39.25 62.66Q39.04 62.75 38.60 62.85Q38.16 62.96 37.69 62.96L37.69 62.96Q35.85 62.96 35.85 61.40L35.85 61.40L35.85 40.11L27.99 40.11Q27.87 39.90 27.74 39.54Q27.61 39.19 27.61 38.72L27.61 38.72Q27.61 38.01 27.95 37.61Q28.29 37.21 28.92 37.21L28.92 37.21L47.10 37.21Q47.23 37.42 47.35 37.78Q47.48 38.13 47.48 38.55L47.48 38.55Q47.48 39.27 47.14 39.69Q46.81 40.11 46.18 40.11L46.18 40.11ZM68.14 40.11L61.21 40.11L61.21 62.66Q61.00 62.75 60.56 62.85Q60.12 62.96 59.66 62.96L59.66 62.96Q57.81 62.96 57.81 61.40L57.81 61.40L57.81 40.11L49.96 40.11Q49.83 39.90 49.71 39.54Q49.58 39.19 49.58 38.72L49.58 38.72Q49.58 38.01 49.92 37.61Q50.25 37.21 50.88 37.21L50.88 37.21L69.07 37.21Q69.19 37.42 69.32 37.78Q69.45 38.13 69.45 38.55L69.45 38.55Q69.45 39.27 69.11 39.69Q68.77 40.11 68.14 40.11L68.14 40.11ZM85.07 62.41L85.07 62.41Q84.86 62.62 84.27 62.79Q83.68 62.96 82.97 62.96L82.97 62.96Q82.17 62.96 81.54 62.73Q80.91 62.49 80.70 62.03L80.70 62.03Q80.16 60.94 79.42 59.22Q78.69 57.50 77.87 55.38Q77.05 53.25 76.19 50.90Q75.33 48.55 74.53 46.24Q73.73 43.93 73.02 41.77Q72.30 39.60 71.80 37.88L71.80 37.88Q72.05 37.55 72.55 37.25Q73.06 36.96 73.69 36.96L73.69 36.96Q74.49 36.96 74.86 37.34Q75.24 37.72 75.49 38.47L75.49 38.47Q77.38 43.97 79.11 49.10Q80.83 54.22 82.89 59.51L82.89 59.51L83.05 59.51Q83.98 57.12 84.97 54.41Q85.95 51.70 86.90 48.82Q87.84 45.95 88.75 43.01Q89.65 40.07 90.36 37.25L90.36 37.25Q90.91 36.96 91.79 36.96L91.79 36.96Q92.55 36.96 93.01 37.34Q93.47 37.72 93.47 38.47L93.47 38.47Q93.47 39.10 92.99 40.84Q92.50 42.59 91.75 44.90Q90.99 47.21 90.05 49.85Q89.10 52.50 88.18 54.94Q87.25 57.37 86.41 59.39Q85.57 61.40 85.07 62.41Z"></path></svg>